<?xml version="1.0" encoding="UTF-8"?>
<!DOCTYPE svg PUBLIC "-//W3C//DTD SVG 1.1//EN" "http://www.w3.org/Graphics/SVG/1.1/DTD/svg11.dtd">
<svg xmlns="http://www.w3.org/2000/svg" version="1.1" width="848px" height="225px" style="shape-rendering:geometricPrecision; text-rendering:geometricPrecision; image-rendering:optimizeQuality; fill-rule:evenodd; clip-rule:evenodd" xmlns:xlink="http://www.w3.org/1999/xlink">
<g><path style="opacity:1" fill="#e1e1e1" d="M 159.5,32.5 C 160.417,30.3382 160.417,28.0048 159.5,25.5C 160.263,22.9852 161.763,20.9852 164,19.5C 165,20.1667 166,20.8333 167,21.5C 167.979,26.4718 168.479,31.3051 168.5,36C 168.023,38.888 167.356,41.7213 166.5,44.5C 166.977,45.4776 167.643,46.3109 168.5,47C 166.965,50.6808 165.798,54.5142 165,58.5C 158.746,67.072 151.579,74.9053 143.5,82C 143.833,82.3333 144.167,82.6667 144.5,83C 139.321,95.2842 131.654,105.618 121.5,114C 113.276,118.905 104.942,119.571 96.5,116C 90.299,111.598 86.9656,105.598 86.5,98C 88.4801,92.0535 90.1468,86.0535 91.5,80C 90.7785,77.2586 89.1118,76.2586 86.5,77C 79.2004,81.5953 71.2004,83.762 62.5,83.5C 61.9872,87.2293 61.1539,90.896 60,94.5C 56.0314,96.549 52.5314,95.549 49.5,91.5C 33.1011,103.621 25.4345,119.621 26.5,139.5C 25.6406,142.963 24.974,146.463 24.5,150C 24.8036,153.101 25.8036,155.935 27.5,158.5C 27.6035,161.545 26.1035,163.212 23,163.5C 21.605,163.22 20.4383,162.553 19.5,161.5C 17.8716,158.4 16.5383,155.233 15.5,152C 15.9514,147.587 16.618,143.253 17.5,139C 16.3779,135.582 16.7112,132.249 18.5,129C 17.8903,126.534 18.2236,124.034 19.5,121.5C 19.1667,120.833 18.8333,120.167 18.5,119.5C 21.0976,113.541 23.5976,107.541 26,101.5C 31.1085,96.6282 35.6085,91.2948 39.5,85.5C 40.8333,85.5 41.5,84.8333 41.5,83.5C 42.2905,82.5987 43.2905,81.9321 44.5,81.5C 46.5,81.5 47.5,80.5 47.5,78.5C 49.7554,76.6197 52.4221,75.6197 55.5,75.5C 56.8333,75.5 57.5,74.8333 57.5,73.5C 57.9623,72.1201 58.9623,71.4534 60.5,71.5C 62.347,72.1859 64.0137,73.1859 65.5,74.5C 67.1047,73.5697 68.6047,73.5697 70,74.5C 72.1443,72.925 74.311,72.5916 76.5,73.5C 78.153,73.3404 79.4863,72.6737 80.5,71.5C 81.9649,70.5943 82.9649,69.261 83.5,67.5C 80.7738,64.7144 79.1072,61.381 78.5,57.5C 78.5508,54.0144 78.5508,50.5144 78.5,47C 81.8375,39.3129 86.1708,32.3129 91.5,26C 95.3021,23.2518 98.9688,20.4185 102.5,17.5C 105.833,16.1667 109.167,16.1667 112.5,17.5C 113.022,18.6074 113.355,19.7741 113.5,21C 111.336,38.1824 105.336,54.0157 95.5,68.5C 97.0291,71.7536 98.3624,75.087 99.5,78.5C 97.7861,85.147 95.7861,91.9803 93.5,99C 99.2971,110.282 107.63,112.616 118.5,106C 127.232,96.6602 133.398,86.1602 137,74.5C 138.774,71.7052 141.274,69.8719 144.5,69C 150.62,63.5594 155.12,57.0594 158,49.5C 158.633,43.839 159.133,38.1723 159.5,32.5 Z M 102.5,27.5 C 103.634,29.9664 103.801,32.633 103,35.5C 100.119,43.5932 96.4525,51.2599 92,58.5C 90.8904,60.0368 89.3904,60.7035 87.5,60.5C 85.7523,56.3846 85.0856,52.218 85.5,48C 87.5401,44.0856 89.7067,40.2522 92,36.5C 95.6646,33.6005 99.1646,30.6005 102.5,27.5 Z"/></g>
<g><path style="opacity:1" fill="#e2e2e2" d="M 265.5,163.5 C 264.29,163.932 263.29,164.599 262.5,165.5C 257.284,167.808 251.784,169.141 246,169.5C 240.089,166.981 233.922,165.148 227.5,164C 214.642,154.802 206.975,142.302 204.5,126.5C 206.877,123.134 207.877,119.634 207.5,116C 210.407,111.424 214.24,107.924 219,105.5C 223.793,108.872 225.126,113.206 223,118.5C 220.365,119.473 218.365,121.14 217,123.5C 216.333,126.833 216.333,130.167 217,133.5C 219.333,138.167 221.667,142.833 224,147.5C 231.35,151.284 239.017,154.284 247,156.5C 250.561,156.283 254.061,155.95 257.5,155.5C 259.153,155.34 260.486,154.674 261.5,153.5C 267.642,149.562 273.975,145.728 280.5,142C 283.167,138 286.5,134.667 290.5,132C 290.167,131.667 289.833,131.333 289.5,131C 294.628,124.147 297.628,116.48 298.5,108C 296.874,104.798 294.374,102.631 291,101.5C 287.94,96.2967 289.273,92.9634 295,91.5C 297.888,91.5159 300.888,92.1825 304,93.5C 306.3,93.5056 308.466,93.0056 310.5,92C 315.487,88.0132 320.153,83.6799 324.5,79C 324.167,78.6667 323.833,78.3333 323.5,78C 324.977,76.1879 326.31,74.3545 327.5,72.5C 328.833,72.5 329.5,71.8333 329.5,70.5C 331.976,67.2389 334.31,64.5722 336.5,62.5C 328.024,51.8265 327.857,40.8265 336,29.5C 338.869,26.7321 342.202,24.7321 346,23.5C 346.414,23.9574 346.914,24.2907 347.5,24.5C 349.336,23.081 351.336,21.9143 353.5,21C 359.022,19.9921 364.522,18.8255 370,17.5C 371.711,17.4393 373.044,18.1059 374,19.5C 375.813,18.3909 376.646,19.0576 376.5,21.5C 380.514,22.71 382.514,25.5434 382.5,30C 381.076,36.1144 377.743,41.4477 372.5,46C 365.784,51.7169 358.784,57.0503 351.5,62C 348.975,64.5839 349.475,66.7506 353,68.5C 357.123,77.3783 356.956,86.2116 352.5,95C 353.174,96.7506 353.507,98.4173 353.5,100C 350.385,104.644 351.052,108.644 355.5,112C 360.087,114.857 364.92,116.023 370,115.5C 371.333,116.167 372.667,116.833 374,117.5C 377.487,116.761 380.987,115.927 384.5,115C 393.008,109.913 400.008,103.247 405.5,95C 405.849,91.4094 407.849,88.5761 411.5,86.5C 412.833,86.5 413.5,85.8333 413.5,84.5C 418.953,79.4111 423.787,73.7445 428,67.5C 428.36,65.3921 429.027,63.3921 430,61.5C 430.421,56.7679 430.588,52.2679 430.5,48C 428.427,39.3158 427.093,30.4824 426.5,21.5C 427.743,16.6896 430.243,15.6896 434,18.5C 435.119,25.4753 436.119,32.4753 437,39.5C 438.682,40.8646 438.849,42.3646 437.5,44C 438.846,49.6726 439.513,55.3393 439.5,61C 439.128,65.4111 437.962,69.5777 436,73.5C 432.027,78.8062 427.361,83.4728 422,87.5C 415.29,97.5527 407.79,107.053 399.5,116C 393.094,119.203 386.761,122.37 380.5,125.5C 374.481,124.995 368.648,124.995 363,125.5C 357.88,121.921 352.713,119.088 347.5,117C 346.257,114.884 345.091,112.718 344,110.5C 344.993,102.563 346.16,94.8966 347.5,87.5C 344.746,87.8874 342.246,88.2208 340,88.5C 337.763,87.9437 335.763,86.9437 334,85.5C 326.586,91.9059 319.086,98.0726 311.5,104C 308.773,106.969 308.106,110.303 309.5,114C 306.625,122.971 302.791,131.471 298,139.5C 290.541,144.958 283.708,151.125 277.5,158C 273.387,159.619 269.387,161.452 265.5,163.5 Z M 367.5,27.5 C 369.75,27.1814 371.75,27.6814 373.5,29C 372.388,32.7245 370.388,35.8911 367.5,38.5C 360.312,44.9147 352.979,51.0814 345.5,57C 344.101,57.5946 342.768,57.4279 341.5,56.5C 335.954,48.0613 336.621,40.5613 343.5,34C 351.604,30.8366 359.604,28.6699 367.5,27.5 Z"/></g>
<g><path style="opacity:0.06" fill="#000000" d="M 92.5,19.5 C 93.0768,18.2267 93.7435,18.2267 94.5,19.5C 94.0302,20.463 93.3635,20.463 92.5,19.5 Z"/></g>
<g><path style="opacity:1" fill="#e8e8e8" d="M 741.5,117.5 C 739.847,117.66 738.514,118.326 737.5,119.5C 735.173,119.247 733.173,119.914 731.5,121.5C 729.177,120.328 726.844,120.328 724.5,121.5C 723.5,121.833 722.833,122.5 722.5,123.5C 707.528,127.5 692.695,130.5 678,132.5C 677.25,131.874 676.416,131.374 675.5,131C 668.983,130.686 662.483,130.186 656,129.5C 652.756,129.849 649.59,130.515 646.5,131.5C 644.998,130.917 643.665,130.084 642.5,129C 633.393,128.795 625.059,126.295 617.5,121.5C 616.914,121.709 616.414,122.043 616,122.5C 615.749,124.433 615.249,126.266 614.5,128C 615.126,132.218 613.293,135.051 609,136.5C 606.407,135.339 604.741,133.339 604,130.5C 601.131,125.223 599.465,119.556 599,113.5C 591.2,114.938 587.7,119.438 588.5,127C 587.029,130.884 586.029,134.884 585.5,139C 586.04,147.142 586.04,155.809 585.5,165C 587.181,177.147 589.515,189.147 592.5,201C 592.561,203.261 591.894,205.261 590.5,207C 588.02,207.96 585.52,208.793 583,209.5C 582.333,208.833 581.667,208.167 581,207.5C 580.803,201.594 579.803,196.261 578,191.5C 576.87,174.162 575.703,156.829 574.5,139.5C 576.487,131.619 577.987,123.619 579,115.5C 584.177,106.664 591.677,100.83 601.5,98C 603.351,96.3163 605.018,94.4829 606.5,92.5C 609.133,93.3006 610.967,94.9673 612,97.5C 612.25,100.754 613.25,103.754 615,106.5C 622.494,113.538 631.827,117.204 643,117.5C 643.414,117.043 643.914,116.709 644.5,116.5C 645.328,117.415 646.328,118.081 647.5,118.5C 650.938,117.709 654.438,117.042 658,116.5C 661.109,117.591 664.275,118.591 667.5,119.5C 671.053,116.877 675.053,116.877 679.5,119.5C 680.797,117.633 682.297,117.3 684,118.5C 693.379,115.21 702.879,113.71 712.5,114C 715.047,112.559 717.547,112.059 720,112.5C 721.333,111.833 722.333,110.833 723,109.5C 731.378,109.405 739.544,107.739 747.5,104.5C 748.833,104.5 749.5,103.833 749.5,102.5C 755.583,99.9126 761.249,96.5793 766.5,92.5C 770.5,92.1726 773.5,90.3393 775.5,87C 776.448,86.5172 777.448,86.3505 778.5,86.5C 778.281,85.325 778.614,84.325 779.5,83.5C 789.533,77.8654 798.2,70.8654 805.5,62.5C 806.71,62.0679 807.71,61.4013 808.5,60.5C 812.054,55.5542 814.387,50.0542 815.5,44C 815.014,38.5711 814.014,33.2378 812.5,28C 812.559,21.508 815.226,20.008 820.5,23.5C 822.25,29.9173 824.25,36.2506 826.5,42.5C 825.796,46.0185 825.629,49.6851 826,53.5C 822.697,58.9686 819.197,64.3019 815.5,69.5C 807.417,76.8521 799.417,84.1854 791.5,91.5C 780.025,98.0942 768.692,104.928 757.5,112C 752.492,114.753 747.158,116.586 741.5,117.5 Z"/></g>
<g><path style="opacity:0.214" fill="#000000" d="M 159.5,25.5 C 160.417,28.0048 160.417,30.3382 159.5,32.5C 158.583,29.9952 158.583,27.6618 159.5,25.5 Z"/></g>
<g><path style="opacity:1" fill="#e1e1e1" d="M 531.5,45.5 C 534.056,46.5434 536.223,48.2101 538,50.5C 538.513,53.0267 539.68,55.1933 541.5,57C 542.131,60.8498 542.798,64.6832 543.5,68.5C 542.779,70.8595 543.446,73.0262 545.5,75C 543.054,80.9948 540.221,86.8281 537,92.5C 526.097,99.0605 514.597,103.394 502.5,105.5C 499.153,104.391 496.153,102.724 493.5,100.5C 491.131,101.901 488.964,103.568 487,105.5C 485.192,113.81 480.525,119.81 473,123.5C 468.918,122.841 467.584,120.508 469,116.5C 473.676,112.167 476.676,106.834 478,100.5C 480.833,97.6667 483.667,94.8333 486.5,92C 489.702,90.5167 493.036,90.1834 496.5,91C 499.667,92.5 502.833,94 506,95.5C 509.958,93.6648 513.958,92.9981 518,93.5C 520.535,91.3154 523.369,89.4821 526.5,88C 532.939,82.9629 535.939,76.4629 535.5,68.5C 534.897,64.4459 534.064,60.4459 533,56.5C 528.033,53.189 527.533,49.5224 531.5,45.5 Z"/></g>
<g><path style="opacity:0.241" fill="#000000" d="M 808.5,60.5 C 807.71,61.4013 806.71,62.0679 805.5,62.5C 805.821,60.9519 806.821,60.2852 808.5,60.5 Z"/></g>
<g><path style="opacity:0.267" fill="#000000" d="M 329.5,70.5 C 329.5,71.8333 328.833,72.5 327.5,72.5C 327.833,71.5 328.5,70.8333 329.5,70.5 Z"/></g>
<g><path style="opacity:0.312" fill="#000000" d="M 80.5,71.5 C 79.4863,72.6737 78.153,73.3404 76.5,73.5C 77.287,71.8958 78.6203,71.2291 80.5,71.5 Z"/></g>
<g><path style="opacity:0.29" fill="#000000" d="M 57.5,73.5 C 57.5,74.8333 56.8333,75.5 55.5,75.5C 55.8333,74.5 56.5,73.8333 57.5,73.5 Z"/></g>
<g><path style="opacity:0.246" fill="#000000" d="M 47.5,78.5 C 47.5,80.5 46.5,81.5 44.5,81.5C 45.1667,80.1667 46.1667,79.1667 47.5,78.5 Z"/></g>
<g><path style="opacity:0.183" fill="#000000" d="M 41.5,83.5 C 41.5,84.8333 40.8333,85.5 39.5,85.5C 39.8333,84.5 40.5,83.8333 41.5,83.5 Z"/></g>
<g><path style="opacity:0.212" fill="#000000" d="M 413.5,84.5 C 413.5,85.8333 412.833,86.5 411.5,86.5C 411.833,85.5 412.5,84.8333 413.5,84.5 Z"/></g>
<g><path style="opacity:0.139" fill="#000000" d="M 749.5,102.5 C 749.5,103.833 748.833,104.5 747.5,104.5C 747.833,103.5 748.5,102.833 749.5,102.5 Z"/></g>
<g><path style="opacity:1" fill="#dcdcdc" d="M 248.5,111.5 C 252.306,111.412 255.973,112.079 259.5,113.5C 261.583,118.07 260.416,121.403 256,123.5C 253.049,121.553 250.382,119.219 248,116.5C 247.36,114.735 247.527,113.068 248.5,111.5 Z"/></g>
<g><path style="opacity:0.476" fill="#000000" d="M 741.5,117.5 C 740.713,119.104 739.38,119.771 737.5,119.5C 738.514,118.326 739.847,117.66 741.5,117.5 Z"/></g>
<g><path style="opacity:1" fill="#dcdcdc" d="M 160.5,118.5 C 161.708,119.234 163.041,119.567 164.5,119.5C 165.143,130.691 165.143,141.857 164.5,153C 163.73,156.271 161.73,158.438 158.5,159.5C 157.667,158.5 156.833,157.5 156,156.5C 156.046,154.687 155.88,153.021 155.5,151.5C 156.965,146.062 157.965,140.562 158.5,135C 156.722,129.136 157.389,123.636 160.5,118.5 Z"/></g>
<g><path style="opacity:0.314" fill="#000000" d="M 724.5,121.5 C 724.5,122.833 723.833,123.5 722.5,123.5C 722.833,122.5 723.5,121.833 724.5,121.5 Z"/></g>
<g><path style="opacity:1" fill="#dcdcdc" d="M 516.5,124.5 C 518.929,124.884 521.263,125.551 523.5,126.5C 523.181,140.386 526.847,153.22 534.5,165C 534.415,166.107 534.081,167.107 533.5,168C 531.899,168.273 530.399,168.773 529,169.5C 526.333,165.5 523.667,161.5 521,157.5C 520.431,152.882 519.098,148.549 517,144.5C 516.668,139.447 515.835,134.447 514.5,129.5C 515.711,128.28 515.711,127.113 514.5,126C 515.416,125.722 516.082,125.222 516.5,124.5 Z"/></g>
<g><path style="opacity:1" fill="#d3d3d3" d="M 429.5,133.5 C 430.901,133.971 432.234,134.638 433.5,135.5C 434.214,137.811 435.214,139.978 436.5,142C 436.167,142.333 435.833,142.667 435.5,143C 436.227,144.399 436.727,145.899 437,147.5C 437.459,155.169 437.959,162.836 438.5,170.5C 438.518,173.924 438.018,177.257 437,180.5C 432.73,182.245 430.563,180.745 430.5,176C 431.462,163.373 430.462,150.873 427.5,138.5C 427.437,136.486 428.103,134.819 429.5,133.5 Z"/></g>
<g><path style="opacity:0.205" fill="#000000" d="M 261.5,153.5 C 260.486,154.674 259.153,155.34 257.5,155.5C 258.287,153.896 259.62,153.229 261.5,153.5 Z"/></g>
<g><path style="opacity:0.229" fill="#000000" d="M 265.5,163.5 C 265.179,165.048 264.179,165.715 262.5,165.5C 263.29,164.599 264.29,163.932 265.5,163.5 Z"/></g>
<g><path style="opacity:1" fill="#dcdcdc" d="M 759.5,166.5 C 763.306,166.412 766.973,167.079 770.5,168.5C 772.583,173.07 771.416,176.403 767,178.5C 764.049,176.553 761.382,174.219 759,171.5C 758.36,169.735 758.527,168.068 759.5,166.5 Z"/></g>
<g><path style="opacity:1" fill="#cecece" d="M 90.5,170.5 C 98.3659,171.709 99.3659,174.876 93.5,180C 85.4763,183.108 77.1429,184.275 68.5,183.5C 68.2436,181.208 68.5769,179.041 69.5,177C 74.7798,175.87 80.1132,174.87 85.5,174C 87.4308,173.098 89.0975,171.931 90.5,170.5 Z"/></g>
</svg>
